<svg width="364" height="160" viewBox="0 0 364 160" fill="none" xmlns="http://www.w3.org/2000/svg">
<mask id="mask0" mask-type="alpha" maskUnits="userSpaceOnUse" x="250" y="76" width="59" height="50">
<rect x="250.419" y="76.665" width="57.6723" height="48.5798" fill="#C4C4C4"/>
</mask>
<g mask="url(#mask0)">
<path d="M266.147 117.512C265.963 116.729 302.496 74.7009 305.629 71.8438C308.762 68.9866 336.819 35.899 338.846 34.747C340.09 31.982 335.989 29.6317 334.147 30.9221C332.442 34.2862 302.865 69.2171 300.193 72.0742C297.521 74.9313 276.099 98.1111 266.746 105.53C264.719 111.153 262.83 112.121 261.402 113.733C261.171 114.609 261.448 115.807 263.153 116.913C264.857 118.019 266.147 117.512 266.147 117.512Z" fill="#6E7681"/>
<path d="M329.078 42.6726C326.407 45.2993 316.364 57.1426 313.737 60.2302C308.117 66.9123 284.851 93.2718 278.908 99.9077C276.145 103.041 265.594 113.825 262.83 116.682C262.922 116.774 263.061 116.866 263.199 116.912C264.903 118.065 266.193 117.511 266.193 117.511C266.009 116.728 302.542 74.7003 305.676 71.8431C308.808 68.986 336.865 35.8983 338.892 34.7463C339.214 34.0089 339.168 33.1794 338.754 32.4883C335.805 36.1288 332.396 39.4007 329.078 42.6726Z" fill="#484F58"/>
<path d="M262.139 112.948C261.862 113.179 261.632 113.456 261.402 113.732C261.171 114.608 261.448 115.806 263.153 116.912C264.857 118.018 266.147 117.511 266.147 117.511C266.239 117.234 266.423 117.004 266.607 116.774C265.594 115.022 264.027 113.686 262.139 112.948Z" fill="#30363D"/>
</g>
<path d="M364 134.286H228.831V135.207H364V134.286Z" fill="#161B22"/>
<path d="M0 136.129L12.1625 105.161L13.2682 114.609L22.2058 98.6637L24.2789 104.747L28.4713 94.0554L33.1705 108.94L40.5417 86.4978L46.0701 105.069L53.7638 94.0554C53.7638 94.0554 45.4712 97.0969 45.4712 96.2674C45.4712 95.4379 56.6662 80.6913 56.6662 80.6913C56.6662 80.6913 46.3465 84.5623 46.3465 83.7328C46.3465 82.9495 55.0998 74.8388 58.0944 69.7236C61.089 64.6083 66.4331 46.9586 66.4331 46.9586C66.4331 46.9586 75.0022 68.7098 79.5631 71.06C81.0374 67.5577 85.7364 57.6499 85.7364 57.6499L76.4304 61.7512C76.4304 61.7512 90.4356 32.212 92.1863 25.576C93.8909 18.8941 93.4763 21.1982 96.563 27.0046C98.6822 31.9355 101.216 48.1107 109.002 57.3273C116.373 64.2397 103.704 59.3089 103.704 59.3089L115.129 81.1983L125.173 61.7512L131.116 76.8664L140.007 57.3273L129.964 64.3779C129.964 64.3779 138.902 51.1982 140.836 40.8295C142.725 30.4148 145.121 13.871 145.121 13.871L157.744 37.9724C157.744 37.9724 169.815 4.51614 170.275 0C171.703 15.9908 190.822 54.1015 190.822 54.1015C190.822 54.1015 198.24 38.295 198.93 32.4424C201.234 38.2488 231.318 134.885 231.318 134.885C231.318 134.885 146.457 140.415 113.379 140.507C80.3002 140.599 19.073 138.387 11.0107 137.696C6.03519 137.281 0 136.129 0 136.129Z" fill="#161B22"/>
<path d="M194.471 140.634L196.004 135.829L204.485 130.719L216.339 123.87L222.061 118.147L228.601 110.889L223.492 108.845L218.689 103.939L219.098 99.1349L188.647 114.569L172.399 119.782L163.407 121.622L160.853 119.621L166.166 114.467L176.895 107.414L191.304 98.9304L208.675 91.2644L225.535 86.1538L233.199 83.9051L224.309 79.3055L218.383 72.2528L216.748 64.1779L217.769 59.2717L217.463 51.0946L218.996 42.8153L222.163 37.2958L220.222 28.9143L220.835 27.2789L227.17 25.8479L234.119 27.1767L237.798 25.3368L249.753 24.5186L260.687 28.1991L267.942 34.1272L270.701 37.9088L273.971 38.2155L276.73 41.8951L277.139 47.3123L276.321 52.9339L276.934 57.3291L276.423 65.1995L273.46 71.7412L280.204 69.1858L290.321 63.8707L299.824 59.4756L311.371 57.1249L316.378 60.0888L317.297 62.9513L315.356 71.1279L309.123 77.5674L302.685 80.0205L297.882 79.8161L294.101 77.6696L293.182 74.911L287.766 77.6696L275.81 82.3712L263.753 85.5405L255.169 86.7671L244.848 86.1535L247.914 91.3664L254.454 90.0375L260.687 90.9581L265.081 95.046L266.716 103.939L263.957 111.605L259.563 114.058L258.746 118.248L268.044 136.238L271.11 133.683L278.672 132.456L282.861 132.354L283.985 135.625L280.613 142.473L275.095 146.868L267.84 150.343L260.176 151.57L257.213 149.832L254.147 145.642L244.235 112.525L241.987 112.627L239.841 118.965L234.834 128.368L228.601 136.034L220.631 141.962L220.12 142.984L222.163 146.664L222.572 150.753L224.411 151.264L224.207 152.49L220.324 155.25L215.215 156.681L205.609 155.659L198.865 152.184L194.88 145.949L194.471 140.634Z" fill="#0D1117"/>
<path d="M229.337 160C254.781 160 275.407 156.679 275.407 152.581C275.407 148.483 254.781 145.162 229.337 145.162C203.893 145.162 183.267 148.483 183.267 152.581C183.267 156.679 203.893 160 229.337 160Z" fill="#161B22" fill-opacity="0.5"/>
<path d="M297.468 79.8266C296.557 79.5229 295.065 78.435 294.432 77.9289L293.673 76.7905C297.973 70.465 305.356 61.2544 307.333 62.2428C308.85 63.0018 311.127 64.0852 314.921 61.8633C315.791 62.5389 317.04 63.7903 316.818 65.784C316.059 72.6155 311.506 75.2722 308.091 77.9289C304.677 80.5856 298.606 80.2061 297.468 79.8266Z" fill="#0D1117"/>
<path d="M203.748 107.271L219.072 99.8261L224.757 91.1499L229.28 86.8487L234.025 84.4756L223.868 86.8487L202.589 93.9684L186.891 101.904L169.448 112.509L162.033 118.813L161.366 120.889L164.48 121.928L171.129 120.41L186.891 115.155L203.748 107.271Z" fill="#0D1117"/>
<path d="M217.528 156.364H210.332L204.907 155.478L199.924 153.041L195.717 147.504L194.721 140.195L196.381 136.097L203.91 131.445L214.761 125.244L219.743 121.146L226.497 113.836L237.901 123.361L232.143 132.331L227.161 137.315L219.743 142.852L221.957 146.95L222.621 151.38H223.397L225.168 151.934L221.957 154.813L217.528 156.364Z" fill="#0D1117"/>
<path d="M251.881 137.302L250.528 133.669L266.127 132.742L268.263 136.875L251.881 137.302Z" fill="#0D1117"/>
<path d="M263.171 145.446L254.094 146.491L258.512 151.232L262.368 151.875L271.847 149.223L263.171 145.446Z" fill="#0D1117"/>
<path d="M269.711 134.167L273.767 132.742H277.305H282.656L283.95 134.167V136.713L267.985 136.195L269.711 134.167Z" fill="#0D1117"/>
<path fill-rule="evenodd" clip-rule="evenodd" d="M270.086 37.5955C269.612 36.8498 268.796 35.7169 267.529 34.4246C265.456 32.3048 261.724 29.2632 255.689 26.9591C248.778 24.3324 240.947 24.6089 234.22 27.6964L233.99 27.7886L233.76 27.6964C226.909 25.2444 222.997 26.8076 221.361 27.8354C223.604 28.6136 227.762 31.0977 229.337 36.5904L228.231 36.9131C226.665 31.3831 222.104 29.1712 220.445 28.7564L222.657 36.867L222.518 37.0974C222.491 37.125 220.914 39.3288 219.652 42.4565C219.701 42.4198 219.75 42.3846 219.801 42.3509C220.63 41.7978 221.643 41.6596 222.703 42.0282C225.051 42.8114 226.755 45.3902 228.552 48.1079L228.554 48.1113C230.305 50.784 232.101 53.5029 234.358 54.102C235.932 54.5066 239.083 54.1219 242.742 53.6751L243.02 53.6412L243.1 53.6313C250.227 52.7574 259.068 51.6734 263.245 55.3002C266.331 57.9269 269.28 62.5813 265.687 69.6781C264.884 71.2835 262.859 74.6017 261.831 76.2839C261.679 76.5332 261.549 76.7465 261.448 76.9131C261.909 77.4661 262.6 78.6182 262.277 80.0468C262.183 80.4835 262.006 80.9014 261.744 81.3006C262.908 80.7184 264.029 80.0788 265.095 79.3863C265.179 79.2317 265.337 79.138 265.509 79.1139C265.601 79.0518 265.693 78.9895 265.785 78.9266L265.733 78.8486C265.771 78.8258 265.872 78.7955 266.026 78.7597C266.19 78.6448 266.352 78.5286 266.514 78.4111C265.793 78.1823 265.163 78.03 264.673 77.973L264.811 76.821C265.533 76.9076 266.507 77.1709 267.621 77.5654C269.436 76.1115 271.028 74.4861 272.32 72.7196C276.195 67.4414 276.219 59.548 275.923 55.5519C275.6 56.3155 275.289 56.8848 275.039 57.1896L274.117 56.4522C274.947 55.3923 277.065 49.6781 276.467 44.5629C276.145 41.9822 275.223 40.0468 273.61 38.7564C267.956 37.6338 261.331 42.9026 260.442 43.6098L260.441 43.61C260.382 43.6575 260.348 43.6843 260.342 43.6872L259.606 42.8117C259.865 42.5891 264.752 38.454 270.086 37.5955ZM266.762 79.7534C267.306 79.6538 268.184 79.5377 269.2 79.4309C270.296 79.9025 271.458 80.4615 272.594 81.0695C271.728 81.4386 270.757 81.8352 269.719 82.2459C268.69 81.2558 267.656 80.388 266.762 79.7534ZM268.549 82.7037C267.505 81.7318 266.479 80.9122 265.647 80.3841C261.546 83.0281 256.688 84.9216 251.672 85.8196C254.376 85.8732 257.795 85.7571 261.731 85.2277L261.724 85.208C264.031 84.4055 266.398 83.5362 268.549 82.7037ZM268.704 83.8691C268.951 83.7718 269.199 83.6732 269.448 83.5738C269.473 83.5986 269.497 83.6233 269.522 83.6481C269.248 83.7239 268.975 83.7977 268.704 83.8691ZM270.592 83.1169C271.9 82.5893 272.962 82.139 273.824 81.7529C274.03 81.8717 274.233 81.9917 274.435 82.1127C273.214 82.5333 271.983 82.9309 270.761 83.2928C270.705 83.2339 270.649 83.1753 270.592 83.1169ZM275.108 81.1563C275.358 81.3076 275.605 81.4605 275.848 81.6148C278.671 80.5974 281.407 79.4825 283.829 78.4331C283.071 78.5324 282.436 78.5721 281.903 78.5721C279.968 78.5721 279.323 78.0191 279.139 77.6505C279.001 77.3739 279.047 77.0053 279.277 76.6366C280.264 74.933 285.958 70.8741 290.339 70.6551C291.967 68.1792 296.131 63.2789 307.933 61.89L308.071 63.0421C296.6 64.3785 292.73 68.8486 290.795 72.0744C290.38 72.7656 290.38 73.1804 290.472 73.2726C290.703 73.5491 291.716 73.503 292.638 73.0882L293.374 72.7196L293.466 73.5491C293.974 79.7242 300.469 79.4016 300.745 79.3555C306.966 79.3555 311.249 75.2541 313.231 72.8118C315.534 70.0007 317.93 62.8117 314.889 59.5398C312.089 56.4636 306.865 58.099 300.858 59.9797L300.791 60.0006C300.239 60.1849 299.641 60.3691 299.042 60.5533L299.041 60.5536C292.784 62.4962 276.096 71.3131 273.858 72.4966C273.664 72.8076 273.459 73.1127 273.242 73.4108C272.015 75.0805 270.532 76.6289 268.853 78.0316C269.027 78.1015 269.202 78.1737 269.38 78.2482C272.453 77.8903 276.481 77.6507 277.389 78.3878C277.711 78.6182 277.803 79.0329 277.665 79.3555C277.574 79.6283 277.404 80.0407 275.108 81.1563ZM273.943 80.4791C275.099 79.957 275.955 79.5196 276.375 79.2173C275.547 79.0263 273.548 79.0796 271.537 79.2242C272.341 79.614 273.152 80.0361 273.943 80.4791ZM275.678 82.8964C274.335 83.3707 272.974 83.8209 271.62 84.23C273.032 85.8336 274.242 87.5491 274.808 89.033C274.901 89.3094 274.762 89.6781 274.486 89.7703C274.44 89.8163 274.348 89.8163 274.301 89.8163C274.071 89.8163 273.841 89.6781 273.749 89.4477C273.179 87.9706 271.885 86.2035 270.411 84.5846C268.658 85.0826 266.928 85.5025 265.271 85.8072C260.388 86.7288 256.15 87.0053 252.787 87.0053C249.053 87.0053 246.451 86.6552 245.35 86.4696L248.267 90.8661C250.307 90.3556 252.226 89.9163 253.893 89.6781C257.348 89.1712 260.757 90.1389 263.245 92.3509C265.917 94.7472 267.345 98.2956 267.253 102.397C267.023 110.507 262.185 113.595 259.836 114.977C259.801 115.813 259.687 116.728 259.255 117.464C259.342 117.646 259.477 117.931 259.655 118.305C261.05 121.254 265.021 129.646 267.992 135.162C270.985 131.35 278.546 131.869 280.291 132.305C280.314 132.305 280.337 132.293 280.36 132.282C280.383 132.27 280.406 132.259 280.429 132.259C281.258 131.937 283.054 131.245 284.298 133.227C285.681 135.439 282.18 141.014 280.844 142.766C276.743 148.203 267.207 151.66 261.909 152.075C261.77 152.121 261.632 152.121 261.448 152.121C256.564 152.121 253.709 146.176 253.617 145.899L253.57 145.807L249.239 131.117C249.223 131.085 249.208 131.052 249.194 131.015L249.208 131.011L243.811 112.709C243.399 112.747 242.985 112.779 242.573 112.805C240.511 118.757 237.698 124.439 234.22 129.679C229.292 136.976 222.664 141.299 220.503 142.59C222.848 145.174 223.262 148.824 223.053 150.611C223.96 150.358 224.454 150.37 224.776 150.646C225.098 150.923 225.237 151.245 225.237 151.66C225.19 152.305 224.684 153.365 221.137 155.392C219.34 156.498 216.299 156.96 213.074 156.96C208.974 156.96 204.643 156.176 202.064 154.886C198.24 152.95 195.752 150.093 194.601 146.453C193.311 142.212 194.277 138.019 195.245 136.176C196.029 134.747 201.51 131.567 209.158 127.236C211.37 125.992 213.489 124.794 214.825 123.964C218.962 121.427 225.711 113.532 227.733 111.121C225.533 110.433 223.726 109.597 222.518 108.71C218.81 105.96 217.497 103.409 218.474 99.9031C213.297 102.625 196.654 111.302 190.316 114.102C187.091 115.485 170.829 121.982 163.872 121.982C162.95 121.982 162.167 121.844 161.66 121.614C160.969 121.291 160.739 120.83 160.647 120.462C160.417 119.632 159.863 117.42 173.961 108.572C181.424 103.872 190.592 98.8947 196.351 96.0376C206.132 91.1855 226.274 85.182 231.492 83.6744C226.127 81.4154 221.545 77.5065 218.465 72.5352C216.636 69.7179 215.881 66.3776 216.316 63.0912C214.731 60.7197 210.757 59.2164 208.467 59.079C208.145 59.079 207.915 58.8025 207.915 58.48C207.915 58.1574 208.191 57.9269 208.513 57.9269C210.679 58.0905 214.477 59.342 216.593 61.6173C216.657 61.3605 216.727 61.1047 216.805 60.8499L216.801 60.8449C216.341 60.1354 212.858 54.7574 208.283 52.8578C208.007 52.7196 207.869 52.397 207.961 52.1205C208.099 51.8439 208.421 51.7057 208.698 51.7979C212.714 53.4542 215.814 57.428 217.133 59.3094C217.195 58.5316 217.156 57.5975 217.104 56.3736C217.097 56.2056 217.09 56.0323 217.083 55.8532C216.991 54.2403 216.898 52.2587 216.898 49.5859L216.899 49.4938H216.898L216.899 49.4772C216.942 43.4355 220.543 37.8276 221.367 36.6366L219.294 28.9407C219.247 28.8025 219.247 28.6181 219.294 28.4799C219.335 28.2315 219.488 28.0202 219.686 27.8461L219.57 27.7425L219.583 27.7297C219.897 27.409 224.114 23.1001 233.898 26.4983C240.855 23.3646 248.917 23.1343 256.058 25.8532C266.329 29.7355 270.296 35.62 271.334 37.4582C272.219 37.4078 273.107 37.4612 273.979 37.6504L274.117 37.6965L274.209 37.7886C276.099 39.2633 277.25 41.4753 277.573 44.4246C277.948 47.3826 277.48 50.5178 276.802 52.9698L276.817 53.0777C276.927 53.8659 277.317 56.6485 277.157 60.185C277.049 63.1933 276.513 67.1422 274.855 70.6643C279.729 68.1036 293.075 61.2023 298.719 59.4477C299.018 59.3556 299.305 59.2635 299.593 59.1715L299.594 59.1711L299.596 59.1708C299.883 59.0787 300.17 58.9867 300.469 58.8947L300.562 58.8656C306.7 56.9409 312.464 55.1338 315.764 58.7103C319.358 62.6274 316.594 70.5537 314.152 73.5029C312.033 76.0836 307.472 80.4615 300.791 80.4615C300.791 80.5537 300.699 80.5537 300.515 80.5537C299.273 80.5537 294.168 80.2748 292.68 75.5692C290.607 76.6231 284.18 79.7813 277.034 82.4079C277.512 82.7444 277.961 83.0835 278.371 83.4214C278.429 83.4402 278.486 83.4672 278.54 83.503C279.139 84.0099 279.646 84.5168 280.106 85.1159C280.291 85.3463 280.245 85.715 280.014 85.9454C279.922 86.0836 279.784 86.1297 279.646 86.1297C279.461 86.1297 279.323 86.0376 279.185 85.8993C279.137 85.8351 279.088 85.7721 279.039 85.7102C278.319 84.8193 277.111 83.8448 275.678 82.8964ZM250.679 131.899L254.675 145.439C254.731 145.561 254.935 145.964 255.271 146.5C255.71 145.956 256.007 143.188 254.399 137.65C253.274 133.817 251.72 132.453 250.679 131.899ZM255.929 147.463C255.959 147.435 255.987 147.405 256.012 147.374C257.21 146.268 256.979 142.397 255.505 137.328C253.872 131.791 251.21 130.813 250.293 130.476L250.254 130.462L248.786 125.492C248.977 125.574 249.176 125.623 249.378 125.623C249.516 125.623 249.608 125.623 249.654 125.669C249.93 125.577 250.115 125.392 250.253 125.116C250.944 123.78 250.99 119.033 250.069 116.222C249.519 114.573 248.761 113.177 248.066 112.295L254.123 111.705C254.399 111.844 254.583 112.075 254.675 112.397C254.675 112.489 254.629 112.765 254.583 112.951C254.307 114.287 253.893 116.499 254.768 117.789C255.137 118.296 255.597 118.572 256.242 118.664C256.518 118.71 256.749 118.71 256.979 118.71C257.551 118.71 258.024 118.588 258.382 118.378C259.826 121.46 265.979 134.498 269.004 139.264L269.971 138.618C269.57 137.983 269.11 137.193 268.61 136.292C271.004 132.365 279.194 133.092 280.152 133.457L280.337 133.549L280.521 133.457C280.567 133.434 280.625 133.411 280.682 133.388H280.683C280.74 133.365 280.798 133.342 280.844 133.319C281.903 132.904 282.64 132.719 283.332 133.825C284.068 135.024 282.134 139.126 279.922 142.074C276.099 147.189 266.792 150.553 261.816 150.923C259.215 151.125 257.158 149.114 255.929 147.463ZM292.347 74.4427C291.748 74.7491 290.612 75.3186 289.091 76.0419L289.09 76.0375C284.99 77.2357 280.982 77.7426 280.244 77.1896C280.835 76.1356 285.589 72.4978 289.604 71.8857C289.056 73.0161 289.313 73.6842 289.643 74.0559C290.185 74.6889 291.304 74.7452 292.347 74.4427ZM255.735 83.6412L255.746 83.6744C252.338 84.6977 248.759 85.2541 245.231 85.2541C244.081 85.2541 242.931 85.2082 241.828 85.0705C241.096 83.7756 239.793 82.4594 237.722 82.3048C236.629 82.2235 235.263 82.6028 233.773 83.3074C227.857 81.3056 222.81 77.2768 219.524 71.9823C217.359 68.7103 216.852 64.7011 218.049 60.9684C218.506 59.6909 218.421 58.2327 218.285 55.923L218.281 55.8532C218.189 54.2403 218.095 52.3048 218.095 49.632C218.095 49.3986 218.102 49.1656 218.114 48.9331C218.318 47.2616 218.963 44.2742 220.445 43.2725C220.998 42.9039 221.597 42.8577 222.334 43.0882C224.262 43.6711 225.885 46.1303 227.456 48.5125L227.587 48.7103L227.731 48.9295C229.572 51.7168 231.434 54.5344 234.082 55.208C235.83 55.6565 239.063 55.2757 242.844 54.8303L243.158 54.7932L243.3 54.7763C250.186 53.9495 258.71 52.9262 262.507 56.1758C266.561 59.632 267.299 64.0099 264.673 69.1712C263.613 71.291 260.296 76.6366 260.25 76.6827L260.02 77.0975L260.342 77.4201C260.342 77.4201 261.448 78.526 261.172 79.8164C260.941 80.8302 259.836 82.3048 255.735 83.6412ZM243.912 86.3863C243.393 86.369 242.88 86.3394 242.368 86.2935C242.43 86.4819 242.478 86.6595 242.513 86.8209L241.407 87.0514C241.406 87.0477 241.404 87.0417 241.402 87.0335L241.395 87.0066C241.28 86.5878 240.474 83.6318 237.676 83.4569C236.113 83.3366 233.144 84.698 230.027 86.9969L230.029 87.0053L230.012 87.0079C229.204 87.6044 228.386 88.2637 227.581 88.9765L227.587 88.9869L227.546 89.008C225.523 90.8035 223.577 92.9356 222.058 95.2541C221.146 96.6655 220.456 97.9009 219.994 99.0104L220.031 99.0791C220.024 99.0834 219.995 99.0989 219.947 99.1251C218.47 102.767 219.489 105.051 223.21 107.789C226.573 110.277 235.51 112.397 244.033 111.521L254.261 110.507L254.399 110.553C255.137 110.83 255.643 111.475 255.781 112.213V112.305C255.781 112.489 255.735 112.719 255.643 113.135C255.627 113.223 255.609 113.318 255.59 113.42V113.421C255.387 114.493 255.054 116.252 255.643 117.051C255.781 117.282 256.012 117.42 256.334 117.466C257.071 117.558 257.624 117.466 257.946 117.19C258.546 116.637 258.638 115.485 258.638 114.609V114.287L258.96 114.102C261.172 112.811 265.825 110.093 266.009 102.351C266.101 98.6182 264.811 95.3924 262.415 93.2265C260.158 91.1988 257.164 90.3693 253.985 90.8302C252.034 91.1146 249.727 91.6856 247.282 92.2905L247.28 92.2909C246.953 92.372 246.623 92.4536 246.291 92.5352C240.486 94.0099 233.944 95.6689 229.613 94.7012L229.889 93.5951C231.337 93.9242 233.085 93.9302 234.993 93.7347C235.341 90.8739 238.121 87.4235 238.582 86.8509C238.614 86.8117 238.635 86.786 238.643 86.7749L239.519 87.5122C239.476 87.5546 236.673 90.9026 236.182 93.5906C238.365 93.288 240.713 92.768 243.034 92.197L242.276 88.4034L243.405 88.1774L244.153 91.9177C244.795 91.7556 245.432 91.5916 246.06 91.4293C246.404 91.3407 246.745 91.2527 247.084 91.166L243.912 86.3863ZM226.88 88.0749C227.11 87.872 227.34 87.6717 227.572 87.4747C225.839 87.8603 224.135 88.3595 222.472 88.9869C219.432 90.0929 217.221 91.1528 216.115 91.7979C217.359 91.6136 219.755 90.9684 222.795 89.8625C223.658 89.5602 225.817 88.6105 226.88 88.0749ZM229.555 85.9C227.026 86.319 224.501 86.993 222.104 87.8809C219.985 88.6182 218.049 89.4477 216.622 90.1851C214.687 91.1988 214.088 91.7979 214.318 92.4431C214.41 92.8118 214.779 92.9961 215.424 92.9961C215.931 92.9961 216.575 92.904 217.497 92.6735C219.017 92.3049 221.044 91.7057 223.164 90.9224C223.482 90.8011 223.954 90.6101 224.484 90.3886C223.152 91.7863 221.978 93.2324 221.091 94.609C220.219 95.9491 219.54 97.1633 219.057 98.2809C218.723 98.4543 218.201 98.7263 217.527 99.0778L217.501 99.0914C211.906 102.009 195.984 110.314 189.809 113.043C182.161 116.406 165.484 122.166 162.167 120.554C161.884 120.433 161.813 120.276 161.769 120.176C161.763 120.162 161.757 120.15 161.752 120.139C161.66 119.77 161.844 117.512 174.56 109.54C182.023 104.84 191.145 99.9086 196.858 97.0514C205.927 92.553 224.051 87.0788 230.62 85.1434C230.266 85.3846 229.91 85.6372 229.555 85.9ZM246.673 112.43L246.796 112.418L246.798 112.443C246.75 112.443 246.707 112.438 246.673 112.43ZM244.979 112.595L246.624 112.435C246.936 112.676 248.108 113.936 248.963 116.545C249.93 119.402 249.7 123.642 249.286 124.471C249.066 124.383 248.598 124.004 248.196 123.493L244.979 112.595ZM241.313 112.864C236.834 113.008 232.47 112.429 228.932 111.47L228.927 111.476C227.394 113.313 220.008 122.159 215.424 124.978C214.042 125.807 211.922 127.005 209.711 128.249C204.597 131.153 196.904 135.531 196.213 136.729C195.337 138.388 194.415 142.212 195.66 146.084C196.673 149.401 198.977 151.983 202.524 153.826C203.768 154.471 205.473 154.978 207.361 155.3C210.08 155.669 215.148 153.641 218.833 152.167C220.062 151.681 221.037 151.297 221.819 151.015C222.106 150.121 222.073 145.513 219.109 142.858C215.101 139.264 205.427 140.462 204.643 140.784C204.643 140.784 204.689 140.738 204.782 140.692L203.953 139.862C204.63 139.184 214.942 137.928 219.636 141.762C221.338 140.761 228.281 136.384 233.207 129.033C236.554 123.967 239.27 118.564 241.313 112.864ZM222.38 152.075L222.373 152.053C221.448 152.383 220.328 152.832 219.34 153.226V153.227C217.175 154.148 214.687 155.162 212.338 155.807C215.608 155.9 218.787 155.484 220.63 154.379C223.854 152.535 224.132 151.706 224.132 151.567C223.855 151.567 223.278 151.736 222.563 151.986C222.508 152.022 222.448 152.052 222.38 152.075ZM272.505 53.0421L271.354 52.8578C271.952 49.0329 272.136 42.3048 271.168 41.2449C270.754 40.7841 268.036 41.7518 265.457 43.2725L264.857 42.3048C269.971 39.2633 271.538 40.0006 271.998 40.4614C273.749 42.2587 272.735 51.4292 272.505 53.0421ZM230.397 76.314C231.272 76.821 232.285 77.1435 233.069 77.1435C233.668 77.1435 234.174 76.9592 234.451 76.5906C235.05 75.5307 233.806 74.056 232.239 73.1804C231.457 72.7196 230.673 72.4431 229.983 72.3509C228.831 72.1665 228.369 72.6735 228.185 72.95C228.001 73.2265 227.863 73.8717 228.554 74.7933C228.969 75.3463 229.613 75.8532 230.397 76.314ZM230.949 75.3463C229.613 74.5628 229.107 73.6873 229.153 73.503C229.337 73.3647 230.305 73.3647 231.641 74.1942C233.023 74.9776 233.484 75.8071 233.437 75.9915C233.299 76.1297 232.332 76.1297 230.949 75.3463ZM168.34 115.899C168.525 116.222 168.893 116.406 169.492 116.406C170.137 116.406 171.059 116.176 172.257 115.761C174.145 115.07 176.448 113.963 178.844 112.581C181.24 111.199 183.359 109.77 184.879 108.48C186.722 106.913 187.367 105.9 186.952 105.162C186.538 104.424 185.34 104.47 183.037 105.3C181.148 105.992 178.844 107.098 176.448 108.48C174.053 109.863 171.933 111.291 170.413 112.581C168.571 114.149 167.926 115.162 168.34 115.899ZM178.246 111.567C173.362 114.379 170.229 115.301 169.4 115.254C169.723 114.517 172.118 112.213 177.002 109.402C181.885 106.59 185.018 105.669 185.847 105.715C185.524 106.498 183.129 108.757 178.246 111.567ZM193.264 102.166C192.665 102.166 192.343 101.982 192.205 101.66C191.882 100.968 192.527 100.231 194.463 98.9408C195.937 97.973 198.01 96.8671 200.22 95.8071C202.478 94.7472 204.643 93.9177 206.303 93.4109C208.513 92.7656 209.481 92.7656 209.803 93.4569C210.126 94.1482 209.481 94.8855 207.546 96.1758C206.071 97.1435 203.999 98.2496 201.787 99.3095C199.53 100.369 197.364 101.199 195.706 101.706C194.601 102.028 193.817 102.166 193.264 102.166ZM208.421 94.1482C207.315 94.2864 204.643 95.0698 200.728 96.9131C196.765 98.7565 194.463 100.277 193.633 101.014C194.739 100.876 197.411 100.093 201.326 98.2496C205.243 96.4062 207.592 94.8855 208.421 94.1482Z" fill="#1F6FEB"/>
<path d="M319.404 147.004C319.404 147.004 321.569 124.885 320.74 121.751C320.233 123.548 311.341 137.926 311.341 137.926V123.917C311.341 123.917 309.361 130.368 308.716 132.35C308.071 129.354 303.418 120.461 304.109 121.475C304.8 122.488 304.938 131.843 304.109 131.843C303.464 131.658 300.976 123.087 298.489 120.276C299.455 121.244 300.147 128.525 300.976 132.166C300.653 130.829 293.974 126.221 290.749 125.575C291.071 127.695 295.862 131.658 296.83 134.47C297.797 137.281 296.185 140.415 296.185 140.415L302.266 144.977L319.404 147.004Z" fill="#161B22"/>
<mask id="mask1" mask-type="alpha" maskUnits="userSpaceOnUse" x="296" y="25" width="59" height="49">
<path fill-rule="evenodd" clip-rule="evenodd" d="M354.381 25.0488H296.709V72.8309C301.537 67.0583 308.191 60.8881 308.191 62.6719C308.191 64.5762 311.601 65.439 314.773 61.7546C315.643 62.4302 317.04 63.7908 316.818 65.7844C316.424 69.3284 315.01 71.7488 313.262 73.6286H354.381V25.0488Z" fill="#C4C4C4"/>
</mask>
<g mask="url(#mask1)">
<path d="M266.147 117.512C265.963 116.729 302.496 74.7009 305.629 71.8438C308.762 68.9866 336.819 35.899 338.846 34.747C340.09 31.982 335.989 29.6317 334.147 30.9221C332.442 34.2862 302.865 69.2171 300.193 72.0742C297.521 74.9313 276.099 98.1111 266.746 105.53C264.719 111.153 262.83 112.121 261.402 113.733C261.171 114.609 261.448 115.807 263.153 116.913C264.857 118.019 266.147 117.512 266.147 117.512Z" fill="#6E7681"/>
<path d="M329.078 42.6726C326.407 45.2993 316.364 57.1426 313.737 60.2302C308.117 66.9123 284.851 93.2718 278.908 99.9077C276.145 103.041 265.594 113.825 262.83 116.682C262.922 116.774 263.061 116.866 263.199 116.912C264.903 118.065 266.193 117.511 266.193 117.511C266.009 116.728 302.542 74.7003 305.676 71.8431C308.808 68.986 336.865 35.8983 338.892 34.7463C339.214 34.0089 339.168 33.1794 338.754 32.4883C335.805 36.1288 332.396 39.4007 329.078 42.6726Z" fill="#484F58"/>
</g>
<g opacity="0.5">
<path d="M321.385 120.277C321.017 119.125 320.878 117.881 321.063 116.637C321.201 116.083 321.569 115.438 322.123 115.438C322.399 115.485 322.629 115.577 322.859 115.761C323.321 116.175 323.781 116.591 324.149 117.097C327.144 120.645 329.356 124.793 330.784 129.217C330.6 127.005 331.797 124.886 333.455 123.41C335.114 121.936 337.233 121.152 339.398 120.599C340.182 120.369 341.15 120.277 341.748 120.83C342.116 121.245 342.255 121.844 342.07 122.397C341.886 122.904 341.564 123.364 341.15 123.733C340.182 124.562 339.076 125.254 337.971 125.806C335.575 127.144 333.317 128.71 331.198 130.461C331.014 130.646 330.784 130.784 330.553 130.83C330.415 130.83 330.23 130.83 330.092 130.784C325.485 129.724 322.537 124.424 321.385 120.277Z" fill="#30363D"/>
</g>
<path d="M307.979 146.775C307.84 146.315 311.387 134.794 311.387 134.794C311.387 134.794 321.938 128.297 323.827 127.19C325.716 126.084 328.342 126.269 328.342 126.269L334.101 124.103C334.101 124.103 349.948 128.297 350.409 128.435C350.87 128.573 353.68 133.734 354.924 135.439C356.168 137.144 356.767 138.25 356.951 141.015L357.089 143.826L348.705 152.812H339.076C339.076 152.812 332.257 155.438 330.691 154.978C329.124 154.518 323.551 153.135 321.523 151.384C319.496 149.633 307.979 146.775 307.979 146.775Z" fill="#484F58"/>
<path d="M328.434 128.295C328.388 127.972 327.651 119.999 335.207 111.336L335.897 111.936C332.074 116.267 330.508 120.461 329.862 123.225C329.171 126.221 329.356 128.156 329.356 128.202L328.434 128.295Z" fill="#484F58"/>
<path d="M336.035 112.579C335.207 112.579 334.515 111.889 334.515 111.059C334.515 110.23 335.207 109.539 336.035 109.539C336.865 109.539 337.556 110.23 337.556 111.059C337.556 111.889 336.865 112.579 336.035 112.579ZM336.035 110.46C335.713 110.46 335.437 110.737 335.437 111.059C335.437 111.381 335.713 111.657 336.035 111.657C336.358 111.657 336.635 111.381 336.635 111.059C336.635 110.737 336.358 110.46 336.035 110.46Z" fill="#484F58"/>
<path d="M340.274 115.207C339.49 115.207 338.846 114.562 338.846 113.779C338.846 112.996 339.49 112.351 340.274 112.351C341.057 112.351 341.702 112.996 341.702 113.779C341.702 114.562 341.057 115.207 340.274 115.207ZM340.274 113.272C339.997 113.272 339.766 113.502 339.766 113.779C339.766 114.055 339.997 114.286 340.274 114.286C340.55 114.286 340.78 114.055 340.78 113.779C340.78 113.502 340.55 113.272 340.274 113.272Z" fill="#484F58"/>
<path d="M334.055 117.697C332.764 117.697 331.751 117.144 331.705 117.098L332.165 116.314C332.257 116.36 334.055 117.374 335.667 116.314C336.911 115.531 338.108 114.609 339.214 113.688L339.813 114.379C338.661 115.347 337.417 116.268 336.173 117.098C335.483 117.558 334.745 117.697 334.055 117.697Z" fill="#484F58"/>
<path d="M325.623 142.766C328.019 140.508 330.691 138.48 333.501 136.729C335.483 137.144 337.325 136.822 338.846 137.052C342.07 134.194 345.849 130.877 349.165 128.157C345.387 127.144 334.055 124.148 334.055 124.148L328.296 126.315C328.296 126.315 325.669 126.176 323.781 127.236C322.307 128.111 315.258 132.443 312.493 134.148C314.29 136.776 322.859 140.692 325.623 142.766Z" fill="#6E7681"/>
<path d="M312.631 134.239L312.493 134.055C315.12 132.443 322.261 128.018 323.781 127.143C325.577 126.13 328.019 126.176 328.342 126.222L334.101 124.056H334.147C334.239 124.102 345.479 127.051 349.257 128.064L349.211 128.295C345.572 127.328 334.883 124.47 334.147 124.286L328.434 126.452H328.388C328.342 126.452 325.762 126.314 323.965 127.374C322.399 128.203 315.258 132.627 312.631 134.239Z" fill="#6E7681"/>
<path d="M56.5281 157.927C78.7151 157.927 96.7013 156.152 96.7013 153.963C96.7013 151.775 78.7151 150 56.5281 150C34.3411 150 16.355 151.775 16.355 153.963C16.355 156.152 34.3411 157.927 56.5281 157.927Z" fill="#161B22" fill-opacity="0.5"/>
<path d="M78.3652 141.29C78.3652 141.29 79.1485 147.281 80.7148 148.894C82.2812 150.506 88.6849 154.977 89.0074 154.147C85.8747 150.23 82.5577 140.553 82.5577 140.553L78.3652 141.29Z" fill="#30363D"/>
<path d="M57.8184 141.705C57.7262 141.751 57.6802 141.797 57.6342 141.843C57.542 141.935 57.6342 142.12 57.6802 142.212C58.4173 143.456 58.9702 144.838 59.3847 146.222C59.6612 147.235 60.214 148.618 61.1354 148.156C62.7479 147.282 61.4119 145.162 61.1354 143.364C61.3198 144.47 64.9132 143.18 66.065 141.521C67.5392 139.401 63.9918 139.079 62.7018 139.401C61.0433 139.815 59.3847 140.968 57.8184 141.705Z" fill="#30363D"/>
<path d="M71.5007 128.756C69.3354 128.526 67.124 128.572 65.143 129.447C63.2541 130.277 61.7338 131.797 60.3517 133.318C59.9371 133.825 59.4764 134.24 58.9236 134.609C58.3707 134.885 57.7718 135.023 57.1729 135.023C54.2704 135.115 51.5523 133.503 49.6174 131.383C47.6824 129.263 46.3004 126.682 44.8261 124.194C42.4765 120.231 39.6201 116.267 35.566 114.101C29.9454 111.06 22.5742 111.982 17.4143 115.853C12.2545 119.677 9.25996 126.038 8.79926 132.397C8.70712 133.825 8.98353 135.623 10.3657 135.945L12.4849 131.843C13.5445 129.816 14.6502 127.742 16.4469 126.314C18.2436 124.885 20.9157 124.378 22.8046 125.668C24.2788 126.682 24.8777 128.572 25.062 130.369C25.2463 132.166 25.108 133.963 25.5227 135.715C26.5363 139.954 30.6826 142.904 34.921 143.733C38.0077 144.332 41.2326 144.056 44.1811 142.904C49.0645 140.968 53.303 136.729 58.5089 137.051C59.2 138.894 60.9967 140.139 62.8856 140.692C64.7744 141.244 66.8015 141.106 68.7364 141.014L66.1566 144.102C67.4926 146.82 69.3354 149.263 71.5007 151.337C72.5603 148.664 71.6849 145.945 70.0264 143.594C70.4411 142.766 71.1321 142.074 71.9614 141.706C73.8963 142.719 78.964 142.442 81.1293 142.166C81.0372 143.733 81.3597 147.328 82.3732 148.848C83.3867 150.369 86.6117 153.641 88.4544 154.609C89.6062 155.253 93.1536 156.083 93.7065 155.023C89.3298 153.18 84.9992 148.71 85.0453 143.964C85.0453 141.659 87.0724 140.139 86.9341 138.203C86.8421 136.498 84.0778 134.517 82.88 133.549C79.6551 130.922 75.693 129.263 71.5007 128.756Z" fill="#484F58"/>
<path d="M47.2678 136.591C45.5632 136.591 43.7664 136.959 42.5226 135.577C42.1079 135.023 41.7393 134.425 41.4169 133.825C40.4033 132.259 39.1594 132.074 37.3627 132.213C35.1974 132.351 34.4142 131.521 33.5389 129.54C31.0511 124.01 24.7856 119.678 18.7504 122.904C14.1434 125.392 11.3331 130.83 10.0431 135.715C10.0431 135.761 9.99707 135.807 9.99707 135.853C10.0893 135.899 10.1813 135.945 10.3196 135.991L12.4849 131.89C13.5445 129.862 14.6501 127.788 16.4468 126.36C18.2437 124.932 20.9157 124.424 22.8045 125.714C24.2788 126.728 24.8777 128.618 25.062 130.415C25.2463 132.213 25.1081 134.009 25.5227 135.761C26.5363 140 30.6826 142.95 34.921 143.78C38.0077 144.378 41.2326 144.102 44.1811 142.95C47.6363 141.567 50.8152 139.033 54.2244 137.789C52.1051 136.867 49.8016 136.591 47.2678 136.591Z" fill="#30363D"/>
<g opacity="0.6">
<path opacity="0.8" d="M70.5332 134.747C70.6253 134.747 74.6795 137.466 74.6334 138.756C74.5873 140.046 70.9478 141.982 70.9478 141.982C70.9478 141.982 72.7445 139.724 72.3299 138.342C71.9152 136.959 70.5332 134.747 70.5332 134.747Z" fill="#8B949E"/>
</g>
<path d="M85.7362 135.945C85.3216 137.328 84.5384 138.618 84.2159 140.093C83.7553 141.89 84.1238 143.826 85.2295 145.3C85.1373 144.886 85.1373 144.424 85.1373 144.01C85.1373 141.706 87.1644 140.185 87.0262 138.25C86.934 137.466 86.4273 136.683 85.7362 135.945Z" fill="#30363D"/>
<path d="M88.501 133.134C89.5606 132.719 90.4359 133.825 89.6988 136.359L91.0348 136.405C90.8044 135.715 90.7122 134.977 90.8044 134.24C90.8505 133.595 91.4033 133.134 92.0484 133.18H92.0944C92.8315 133.226 93.0618 133.825 93.108 134.562C93.108 135.253 92.9698 135.945 92.6473 136.59C94.2596 137.743 95.135 139.723 94.9047 141.705C94.7665 142.396 94.6283 143.088 94.5822 143.779C94.5361 144.516 94.9047 145.162 95.5036 145.53C95.8721 145.668 96.2868 145.714 96.6554 145.806C97.0239 145.898 97.4385 146.222 97.3925 146.636C97.3463 146.958 97.0239 147.142 96.7474 147.328C94.49 148.434 91.864 148.434 89.6526 147.328C87.7177 146.36 86.1514 144.516 85.8749 142.396C85.6907 140.968 86.1052 139.585 87.0267 138.479C87.3492 138.111 88.3628 137.603 88.501 137.143C87.9021 136.405 87.0728 133.687 88.501 133.134Z" fill="#484F58"/>
<path d="M96.701 146.958C97.0317 146.958 97.2999 146.689 97.2999 146.359C97.2999 146.028 97.0317 145.76 96.701 145.76C96.3701 145.76 96.1021 146.028 96.1021 146.359C96.1021 146.689 96.3701 146.958 96.701 146.958Z" fill="#30363D"/>
<g opacity="0.6">
<path opacity="0.8" d="M38.8833 121.566C41.325 124.331 43.2139 127.511 45.5174 130.368C47.8209 133.225 50.9998 135.298 54.5932 136.174C54.8696 136.128 55.0999 136.082 55.3764 136.036C52.8425 135.806 50.4929 134.331 48.7423 132.442C46.7613 130.322 45.4253 127.741 43.951 125.253C41.6014 121.29 38.7451 117.326 34.6909 115.16C31.8806 113.686 28.7018 113.087 25.5229 113.455C30.6828 114.423 35.5202 117.742 38.8833 121.566Z" fill="#8B949E"/>
</g>
<g opacity="0.6">
<path opacity="0.8" d="M78.964 133.041C81.2214 134.332 82.9721 136.174 84.5385 138.202C84.6307 137.649 84.815 137.096 84.9992 136.59C83.8474 135.253 82.4654 134.054 80.9911 133.087C77.5819 130.875 73.6659 130.23 69.75 129.539L71.086 130.184C73.7121 131.152 76.5223 131.612 78.964 133.041Z" fill="#8B949E"/>
</g>
<g opacity="0.6">
<path opacity="0.8" d="M88.0864 134.839C89.4224 134.747 88.6853 137.097 89.4225 137.373C90.0214 137.604 90.7585 137.143 91.4496 137.419C92.1867 137.789 92.7396 138.341 93.1081 139.079C93.6148 140.093 93.6148 141.014 93.5227 142.12C93.4766 143.548 93.5688 145.024 95.2273 145.438C94.7205 145.024 94.4441 144.424 94.4901 143.78C94.5363 143.088 94.6745 142.396 94.8127 141.706C95.043 139.724 94.1677 137.743 92.5552 136.591C92.8777 135.945 93.0159 135.253 93.0159 134.563C92.9698 133.825 92.7395 133.226 92.0023 133.18C91.3574 133.088 90.8045 133.549 90.7124 134.194V134.24C90.6203 134.977 90.7124 135.715 90.9427 136.406L89.6067 136.359C90.3438 133.779 89.4685 132.673 88.4089 133.134C87.7179 133.411 87.5797 134.147 87.6257 134.977C87.81 134.931 87.9482 134.885 88.0864 134.839Z" fill="#8B949E"/>
</g>
</svg>
